# xmcd
#
# Track frame offsets:
#	150
#	10502
#	22640
#	34107
#	45062
#	58257
#	68840
#	81317
#	96020
#	108717
#	120275
#	133492
#	147385
#	160917
#	172797
#
# Disc length: 2450 seconds
#
# Revision: 5
# Processed by: cddbd v1.5.1PL2 Copyright (c) Steve Scherf et al.
# Submitted via: audiograbber 1.82.02
#
DISCID=b809900f
DTITLE=Various Artist - Country Nuggets
DYEAR=1900
DGENRE=Country
TTITLE0=Faron Young - Hello Walls (Live)
TTITLE1=Don Williams - On Her Way To Be A Woman
TTITLE2=Tammy Wynette - D.I.V.O.R.C.E. (Live)
TTITLE3=Guy Mitchell - Singin' The Blues
TTITLE4=Kathy Mattea - Ball And Chain (Live)
TTITLE5=Conway Twitty - It's Only Make Believe
TTITLE6=Bobby Bare - Tequila Sheila (Live)
TTITLE7=Ray Griff - Getting' Back To Norman
TTITLE8=Box Car Willy - Hobo Heaven (Live)
TTITLE9=Patsy Cline - Walking After Midnight
TTITLE10=Charlie Bird - Behind Closed Doors (Live)
TTITLE11=Barbara Fairchild - Teddy Bear Song
TTITLE12=Merle Haggard - Games People Play (Live)
TTITLE13=Ricky Skaggs - Are You Proud Of America
TTITLE14=Ed Bruce and Lynn Anderson - Down The Hall (Live)
EXTD=
EXTT0=
EXTT1=
EXTT2=
EXTT3=
EXTT4=
EXTT5=
EXTT6=
EXTT7=
EXTT8=
EXTT9=
EXTT10=
EXTT11=
EXTT12=
EXTT13=
EXTT14=
PLAYORDER=
